<svg width="27" height="27" viewBox="0 0 27 27" fill="none" xmlns="http://www.w3.org/2000/svg">
<circle cx="11.8382" cy="15.3883" r="10.5882" fill="#97ECA3"/>
<path d="M6.10141 4.80011C3.52148 7.27618 1.25 10.5452 1.25 14.9318C1.25 19.1546 4.1168 23.1361 6.99982 24.6413C9.52644 25.9605 12.96 26.2975 15.6245 25.6733C18.9228 24.9006 20.5727 23.1418 22.5243 19.5755C24.6319 15.7243 22.1237 10.0313 19.3619 8.17734C16.0048 5.9238 10.5225 5.112 6.99982 8.17734" stroke="black" stroke-width="2" stroke-linecap="round"/>
<path d="M7.60294 11.5367C7.68575 11.6984 10.9706 18.7101 12.1207 18.9033C13.2391 19.0911 13.6965 17.4007 14.3329 16.5449C18.003 11.6099 22.1728 7.02944 25.25 1.97656" stroke="black" stroke-width="2" stroke-linecap="round" stroke-linejoin="round"/>
</svg>
