<svg width="78" height="18" viewBox="0 0 78 18" fill="none" xmlns="http://www.w3.org/2000/svg">
<path fill-rule="evenodd" clip-rule="evenodd" d="M60.3827 4.35205H61.9342V5.81853H60.3827V4.35205ZM20.4366 4.35206H28.3108V5.81854H25.2147V14.0624H23.5121V5.81854H20.4297V4.35206H20.4366ZM27.9755 7.03146H29.4309V8.3883H29.4583C29.5064 8.19642 29.5956 8.0114 29.7261 7.83323C29.8565 7.65506 30.0144 7.48374 30.1998 7.33983C30.3851 7.18907 30.5911 7.07258 30.8176 6.97664C31.0442 6.88755 31.2776 6.83958 31.511 6.83958C31.6895 6.83958 31.8199 6.84644 31.8886 6.85329C31.9206 6.85648 31.9525 6.86116 31.9852 6.86594C32.0227 6.87142 32.0611 6.87704 32.1014 6.8807V8.37459C31.9916 8.35403 31.8817 8.34033 31.765 8.32662C31.6483 8.31292 31.5385 8.30606 31.4286 8.30606C31.1677 8.30606 30.9206 8.36089 30.6872 8.46368C30.4538 8.56647 30.2547 8.72408 30.0831 8.92281C29.9114 9.12839 29.7741 9.37509 29.6711 9.67661C29.5682 9.97813 29.5201 10.3208 29.5201 10.7114V14.0555H27.9686V7.03146H27.9755ZM37.7081 14.0623H39.2322V7.03832H37.6807V11.1157C37.6807 11.3898 37.6532 11.6433 37.5914 11.8763C37.5296 12.1093 37.4335 12.3149 37.2962 12.4794C37.1658 12.6507 36.9873 12.7809 36.7676 12.8837C36.5479 12.9865 36.2802 13.0344 35.9507 13.0344C35.525 13.0344 35.1886 12.9042 34.9552 12.6507C34.7149 12.3971 34.5982 11.9586 34.5982 11.3418V7.03146H33.0467V11.4926C33.0467 12.4177 33.2527 13.1098 33.6646 13.569C34.0765 14.0281 34.7493 14.2542 35.6761 14.2542C36.0674 14.2542 36.4518 14.1446 36.8294 13.9321C37.207 13.7197 37.4885 13.4388 37.6807 13.0824H37.7081V14.0623ZM41.8776 11.8078C41.9256 12.2601 42.0973 12.5753 42.3925 12.7603C42.6945 12.9385 43.0515 13.0345 43.4703 13.0345C43.6145 13.0345 43.7792 13.0207 43.9646 13.0002C44.1499 12.9796 44.3284 12.9317 44.4863 12.87C44.6511 12.8083 44.7815 12.7124 44.8914 12.589C44.9944 12.4657 45.0424 12.3081 45.0355 12.1093C45.0287 11.9106 44.9532 11.7461 44.8159 11.6228C44.6786 11.4926 44.5069 11.3967 44.2941 11.3144C44.0813 11.239 43.841 11.1705 43.5664 11.1157C43.3414 11.0708 43.1164 11.0213 42.8877 10.9709L42.7357 10.9375C42.4474 10.8758 42.1659 10.7936 41.8982 10.7045C41.6304 10.6154 41.3902 10.4921 41.1774 10.3345C40.9645 10.1837 40.7929 9.98499 40.6693 9.74515C40.5389 9.5053 40.4771 9.21064 40.4771 8.8543C40.4771 8.47055 40.5732 8.15532 40.7586 7.89492C40.9439 7.63451 41.1842 7.42893 41.4657 7.27132C41.754 7.11371 42.0698 7.00406 42.4199 6.93554C42.7701 6.87386 43.1064 6.8396 43.4222 6.8396C43.7861 6.8396 44.1362 6.88072 44.4657 6.9561C44.7953 7.03148 45.0973 7.15482 45.3651 7.33299C45.6328 7.50431 45.8525 7.73045 46.031 8.00456C46.2095 8.27867 46.3193 8.61445 46.3674 9.00506H44.7472C44.6717 8.63501 44.5069 8.38146 44.2392 8.25811C43.9715 8.12791 43.6625 8.06624 43.3193 8.06624C43.2094 8.06624 43.079 8.07309 42.928 8.09365C42.7769 8.1142 42.6396 8.14847 42.5023 8.19644C42.3719 8.24441 42.262 8.31979 42.1659 8.41572C42.0767 8.51166 42.0286 8.63501 42.0286 8.79262C42.0286 8.9845 42.0973 9.13526 42.2277 9.25175C42.3582 9.36825 42.5298 9.46419 42.7426 9.54642C42.9554 9.6218 43.1957 9.69033 43.4703 9.74515C43.6858 9.78816 43.9054 9.8354 44.1294 9.88354L44.3147 9.92332C44.5962 9.98499 44.8708 10.0672 45.1454 10.1563C45.42 10.2454 45.6603 10.3687 45.8731 10.5264C46.0859 10.684 46.2575 10.8758 46.388 11.1088C46.5184 11.3418 46.5871 11.6365 46.5871 11.9791C46.5871 12.3971 46.4909 12.7466 46.2987 13.0413C46.1065 13.3291 45.8594 13.569 45.5573 13.7471C45.2552 13.9253 44.912 14.0624 44.5413 14.1446C44.1705 14.2268 43.7998 14.2679 43.436 14.2679C42.9897 14.2679 42.5778 14.22 42.2003 14.1172C41.8227 14.0144 41.4931 13.8636 41.2185 13.6649C40.9439 13.4593 40.7243 13.2058 40.5664 12.9043C40.4085 12.6027 40.3261 12.2395 40.3123 11.8215H41.8776V11.8078ZM48.1699 7.03196H47.0097V8.20377H48.1836V12.3497C48.1905 12.6375 48.2248 12.8979 48.2729 13.124C48.3278 13.3502 48.417 13.5352 48.5612 13.6859C48.6985 13.8367 48.8976 13.9532 49.1447 14.0286C49.3919 14.104 49.7214 14.1451 50.1333 14.1451C50.3049 14.1451 50.4697 14.1382 50.6345 14.1177C50.7207 14.1064 50.811 14.0973 50.9032 14.0879C50.9798 14.0801 51.0577 14.0722 51.1356 14.0628V12.8636C51.0258 12.891 50.9159 12.9047 50.8061 12.9116C50.6962 12.9184 50.5864 12.9184 50.4766 12.9184C50.2981 12.9184 50.1676 12.8979 50.0646 12.8568C49.9617 12.8156 49.8862 12.754 49.8381 12.6717C49.79 12.5895 49.7557 12.4867 49.742 12.3702C49.7283 12.2469 49.7214 12.1098 49.7214 11.9454V8.19007H51.1219V7.03196H49.7214V4.92133H48.1699V7.03196ZM52.2264 7.03146H53.6955V7.98399H53.723C53.9427 7.57282 54.2448 7.28501 54.6361 7.10684C55.0274 6.92867 55.4461 6.83958 55.9061 6.83958C56.4622 6.83958 56.9427 6.93552 57.3546 7.13425C57.7666 7.32613 58.1098 7.59338 58.3844 7.93602C58.659 8.27865 58.8581 8.67611 58.9954 9.12839C59.1327 9.58067 59.2014 10.0672 59.2014 10.5812C59.2014 11.054 59.1396 11.5131 59.016 11.9517C58.8924 12.3971 58.7071 12.7877 58.4599 13.1304C58.2128 13.473 57.897 13.7403 57.5125 13.9458C57.1281 14.1514 56.6819 14.2542 56.1601 14.2542C55.9336 14.2542 55.707 14.2337 55.4805 14.1925C55.2539 14.1514 55.0342 14.0829 54.8283 13.9938C54.6223 13.9047 54.4232 13.7882 54.2516 13.6443C54.0731 13.5004 53.929 13.336 53.8054 13.1509H53.7779V16.6595H52.2264V7.03146ZM57.5228 9.62895C57.6052 9.93047 57.6464 10.2388 57.6464 10.5541C57.6464 10.8624 57.6121 11.164 57.5503 11.4586C57.4816 11.7533 57.3649 12.0137 57.207 12.2467C57.0491 12.4728 56.85 12.6647 56.6029 12.8086C56.3557 12.9525 56.0605 13.0279 55.7036 13.0279C55.3878 13.0279 55.1063 12.9662 54.866 12.836C54.6257 12.7127 54.4198 12.5414 54.2482 12.3221C54.0697 12.1028 53.9461 11.8424 53.8568 11.5409C53.7676 11.2393 53.7264 10.9104 53.7264 10.5541C53.7264 9.80026 53.8912 9.19723 54.2207 8.74495C54.5502 8.29267 55.0445 8.06653 55.6967 8.06653C56.0125 8.06653 56.294 8.14191 56.5411 8.27896C56.7814 8.41602 56.9873 8.60104 57.1521 8.83403C57.3169 9.06702 57.4404 9.32743 57.5228 9.62895ZM61.9342 7.03146H60.3827V14.0623H61.9342V7.03146ZM63.3241 4.35205H64.8756V14.0623H63.3241V4.35205ZM68.1267 13.9733C68.5661 14.1583 69.0672 14.2542 69.6301 14.2542C70.1931 14.2542 70.6942 14.1583 71.1336 13.9733C71.573 13.7882 71.9506 13.5347 72.2526 13.2058C72.5547 12.8768 72.7881 12.4862 72.946 12.034C73.1039 11.5817 73.1863 11.0814 73.1863 10.5401C73.1863 10.0055 73.1039 9.51215 72.946 9.05987C72.7881 8.60759 72.5547 8.21699 72.2526 7.88806C71.9437 7.56598 71.573 7.30558 71.1336 7.12056C70.6942 6.93553 70.1931 6.83959 69.6301 6.83959C69.0672 6.83959 68.5661 6.93553 68.1267 7.12056C67.6873 7.30558 67.3097 7.55913 67.0077 7.88806C66.7056 8.21699 66.4722 8.60759 66.3143 9.05987C66.1564 9.51215 66.074 10.0055 66.074 10.5401C66.074 11.0814 66.1564 11.5817 66.3143 12.034C66.4722 12.4862 66.7056 12.8768 67.0077 13.2058C67.3166 13.5278 67.6873 13.7882 68.1267 13.9733ZM69.6334 13.0279C69.9766 13.0279 70.2787 12.9525 70.5327 12.8086C70.7867 12.6647 70.9927 12.4728 71.1574 12.2398C71.3222 12.0068 71.4389 11.7396 71.5213 11.4449C71.5968 11.1502 71.638 10.8487 71.638 10.5404C71.638 10.2388 71.5968 9.94417 71.5213 9.64265C71.4458 9.34113 71.3222 9.08073 71.1574 8.84774C70.9927 8.61475 70.7867 8.42972 70.5327 8.28582C70.2787 8.14191 69.9766 8.06653 69.6334 8.06653C69.2901 8.06653 68.988 8.14191 68.734 8.28582C68.48 8.42972 68.2741 8.6216 68.1093 8.84774C67.9445 9.08073 67.8278 9.34113 67.7455 9.64265C67.6699 9.94417 67.6288 10.2388 67.6288 10.5404C67.6288 10.8487 67.6699 11.1502 67.7455 11.4449C67.821 11.7396 67.9445 12.0068 68.1093 12.2398C68.2741 12.4728 68.48 12.6647 68.734 12.8086C68.988 12.9594 69.2901 13.0279 69.6334 13.0279ZM74.8144 7.03196H73.6542V8.20377H74.8281V12.3497C74.835 12.6375 74.8693 12.8979 74.9174 13.124C74.9723 13.3502 75.0616 13.5352 75.2057 13.6859C75.343 13.8367 75.5421 13.9532 75.7893 14.0286C76.0364 14.104 76.3659 14.1451 76.7778 14.1451C76.9495 14.1451 77.1142 14.1382 77.279 14.1177C77.3652 14.1064 77.4556 14.0973 77.5478 14.0879C77.6244 14.0801 77.7023 14.0722 77.7801 14.0628V12.8636C77.6703 12.891 77.5605 12.9047 77.4506 12.9116C77.3408 12.9184 77.2309 12.9184 77.1211 12.9184C76.9426 12.9184 76.8122 12.8979 76.7092 12.8568C76.6062 12.8156 76.5307 12.754 76.4826 12.6717C76.4346 12.5895 76.4002 12.4867 76.3865 12.3702C76.3728 12.2469 76.3659 12.1098 76.3659 11.9454V8.19007H77.7664V7.03196H76.3659V4.92133H74.8144V7.03196Z" fill="black"/>
<path d="M18.625 6.91693H11.5128L9.31596 0.160156L7.11226 6.91693L0 6.91008L5.75983 11.0902L3.55613 17.8402L9.31596 13.6669L15.0689 17.8402L12.8721 11.0902L18.625 6.91693Z" fill="#00B67A"/>
<path d="M13.3668 12.618L12.8725 11.0898L9.31641 13.6665L13.3668 12.618Z" fill="#005128"/>
</svg>
